HIERARCHY
ROOT reference
{
  OFFSET 0 0 0
  CHANNELS 6 Xposition Yposition Zposition Zrotation Xrotation Yrotation
  JOINT Hips
  {
    OFFSET 14.231 85.1937 190.066
    CHANNELS 6 Xposition Yposition Zposition Zrotation Xrotation Yrotation
    JOINT Spine
    {
      OFFSET 0 7.31558 0
      CHANNELS 6 Xposition Yposition Zposition Zrotation Xrotation Yrotation
      JOINT Spine1
      {
        OFFSET 0 21.7428 0
        CHANNELS 6 Xposition Yposition Zposition Zrotation Xrotation Yrotation
        JOINT Neck
        {
          OFFSET 0 21.6535 1.9685
          CHANNELS 6 Xposition Yposition Zposition Zrotation Xrotation Yrotation
          JOINT Head
          {
            OFFSET 0 12.49 -1.78429
            CHANNELS 6 Xposition Yposition Zposition Zrotation Xrotation Yrotation
            End Site
            {
              OFFSET 0 22.3036 0
            }
          }
        }
        JOINT LeftShoulder
        {
          OFFSET 3.56546 21.4407 -0.045508
          CHANNELS 6 Xposition Yposition Zposition Zrotation Xrotation Yrotation
          JOINT LeftArm
          {
            OFFSET 5.86532 0 0
            CHANNELS 6 Xposition Yposition Zposition Zrotation Xrotation Yrotation
            JOINT LeftForeArm
            {
              OFFSET 30.0831 0 0
              CHANNELS 6 Xposition Yposition Zposition Zrotation Xrotation Yrotation
              JOINT LeftHand
              {
                OFFSET 21.3133 0 0
                CHANNELS 6 Xposition Yposition Zposition Zrotation Xrotation Yrotation
                End Site
                {
                  OFFSET 13.3822 0 0
                }
              }
            }
          }
        }
        JOINT RightShoulder
        {
          OFFSET -3.55605 21.4407 -0.045508
          CHANNELS 6 Xposition Yposition Zposition Zrotation Xrotation Yrotation
          JOINT RightArm
          {
            OFFSET -5.86532 0 0
            CHANNELS 6 Xposition Yposition Zposition Zrotation Xrotation Yrotation
            JOINT RightForeArm
            {
              OFFSET -30.0831 0 0
              CHANNELS 6 Xposition Yposition Zposition Zrotation Xrotation Yrotation
              JOINT RightHand
              {
                OFFSET -21.3133 0 0
                CHANNELS 6 Xposition Yposition Zposition Zrotation Xrotation Yrotation
                End Site
                {
                  OFFSET -13.3822 0 0
                }
              }
            }
          }
        }
      }
    }
    JOINT LeftUpLeg
    {
      OFFSET 8.92144 0 0
      CHANNELS 6 Xposition Yposition Zposition Zrotation Xrotation Yrotation
      JOINT LeftLeg
      {
        OFFSET 0 -39.6329 0
        CHANNELS 6 Xposition Yposition Zposition Zrotation Xrotation Yrotation
        JOINT LeftFoot
        {
          OFFSET 0 -38.0584 0
          CHANNELS 6 Xposition Yposition Zposition Zrotation Xrotation Yrotation
          JOINT LeftToeBase
          {
            OFFSET 0 -5.79894 13.3822
            CHANNELS 6 Xposition Yposition Zposition Zrotation Xrotation Yrotation
            End Site
            {
              OFFSET 0 0 3.56858
            }
          }
        }
      }
    }
    JOINT RightUpLeg
    {
      OFFSET -8.92144 0 0
      CHANNELS 6 Xposition Yposition Zposition Zrotation Xrotation Yrotation
      JOINT RightLeg
      {
        OFFSET 0 -39.6329 0
        CHANNELS 6 Xposition Yposition Zposition Zrotation Xrotation Yrotation
        JOINT RightFoot
        {
          OFFSET 0 -38.0584 0
          CHANNELS 6 Xposition Yposition Zposition Zrotation Xrotation Yrotation
          JOINT RightToeBase
          {
            OFFSET 0 -5.79894 13.3822
            CHANNELS 6 Xposition Yposition Zposition Zrotation Xrotation Yrotation
            End Site
            {
              OFFSET 0 0 3.56858
            }
          }
        }
      }
    }
  }
}
MOTION
Frames:	11
Frame Time:	0.004
0 0 0 0 0 -0 -6.07031 78.1337 -141.5 -1.37406 -5.49034 7.39923 0 7.31558 2.84217e-014 1.21362 -0.829069 0.2582 0 21.7428 0 0.457391 -3.9196 0.265619 -1.77636e-015 21.6535 1.9685 -1.10663 15.6986 1.97353 0 12.49 -1.78429 -4.32978 0.254442 1.4471 3.56546 21.4407 -0.045508 14.297 -0.296708 -8.58283 5.86532 -2.84217e-014 -2.84217e-014 -18.7936 2.3231 0.400599 30.0831 0 0 -2.21052 1.44611 5.27041 21.3133 -2.84217e-014 2.84217e-014 -1.68828 1.58161 -2.27998 -3.55605 21.4407 -0.045508 -13.7964 -1.78669 -2.83682 -5.86532 0 -1.42109e-014 16.9352 -1.49659 0.930794 -30.0831 0 0 -1.12636 3.24668 -4.00253 -21.3133 0 0 5.49081 3.35375 3.10649 8.92144 1.42109e-014 2.84217e-014 0.32491 8.46793 0.853212 0 -39.6329 0 -2.7215 0.900777 -4.54597 8.88178e-016 -38.0584 0 5.71271 -12.4822 6.61667 0 -5.79894 13.3822 3.97569e-016 1.59028e-015 1.59028e-015 -8.92144 0 0 2.14767 10.8604 7.43438 0 -39.6329 0 4.10884 -1.02382 -2.02914 0 -38.0584 0 -7.49584 -9.54939 -18.7612 3.55271e-015 -5.79894 13.3822 -9.93923e-017 7.95139e-016 -0 
0 0 0 0 0 -0 -6.07031 78.1337 -141.5 -1.37406 -5.49034 7.39923 0 7.31558 2.84217e-014 1.21362 -0.829069 0.2582 0 21.7428 0 0.457391 -3.9196 0.265619 -1.77636e-015 21.6535 1.9685 -1.09847 15.7249 1.97379 -3.55271e-015 12.49 -1.78429 -4.34183 0.229381 1.4471 3.56546 21.4407 -0.045508 14.297 -0.296708 -8.58283 5.86532 -2.84217e-014 -2.84217e-014 -18.7937 2.33469 0.400602 30.0831 2.84217e-014 0 -2.1476 1.38454 5.27027 21.3133 0 0 -2.31919 1.53362 -2.48279 -3.55605 21.4407 -0.045508 -13.7742 -1.77314 -2.82601 -5.86532 -5.68434e-014 1.42109e-014 16.9161 -1.50149 0.930796 -30.0831 0 1.42109e-014 -1.12636 3.24668 -4.00253 -21.3133 0 1.42109e-014 5.43484 3.35381 3.08931 8.92144 1.42109e-014 2.84217e-014 0.327801 8.47828 0.832573 0 -39.6329 0 -2.72294 0.88701 -4.52391 -1.77636e-015 -38.0584 0 5.64848 -12.4827 6.66323 0 -5.79894 13.3822 -0 0 1.59028e-015 -8.92144 0 0 2.14655 10.8709 7.43322 0 -39.6329 0 4.10909 -1.0317 -1.99998 0 -38.0584 -2.84217e-014 -7.47401 -9.54939 -18.7612 0 -5.79894 13.3822 3.97569e-016 7.95139e-016 7.95139e-016 
0 0 0 0 0 -0 -6.07031 78.1337 -141.5 -1.37406 -5.49034 7.39923 0 7.31558 2.84217e-014 1.21362 -0.829069 0.2582 0 21.7428 0 0.457391 -3.9196 0.265619 -1.77636e-015 21.6535 1.9685 -1.09993 15.7243 1.97378 -3.55271e-015 12.49 -1.78429 -4.35341 0.231193 1.4471 3.56546 21.4407 -0.045508 14.297 -0.296708 -8.58283 5.86532 -2.84217e-014 -2.84217e-014 -18.7938 2.34051 0.400604 30.0831 0 2.84217e-014 -2.14472 1.37879 5.27025 21.3133 2.84217e-014 0 -2.33525 1.52816 -2.48854 -3.55605 21.4407 -0.045508 -13.7985 -1.78392 -2.82487 -5.86532 0 2.84217e-014 16.9358 -1.4867 0.93062 -30.0831 -2.84217e-014 -2.84217e-014 -1.13165 3.25027 -4.0042 -21.3133 0 0 5.43477 3.35742 3.09422 8.92144 1.42109e-014 2.84217e-014 0.326717 8.46589 0.841144 0 -39.6329 -2.84217e-014 -2.72153 0.904532 -4.52583 1.77636e-015 -38.0584 0 5.68142 -12.4964 6.61096 -3.55271e-015 -5.79894 13.3822 -1.98785e-016 1.59028e-015 -1.59028e-015 -8.92144 0 0 2.14362 10.8704 7.44884 3.55271e-015 -39.6329 2.84217e-014 4.10813 -1.04034 -2.03625 3.55271e-015 -38.0584 0 -7.49733 -9.54989 -18.7521 0 -5.79894 13.3822 1.98785e-016 0 7.95139e-016 
0 0 0 0 0 -0 -6.07031 78.1337 -141.5 -1.37451 -5.48686 7.39918 -1.77636e-015 7.31558 0 1.21366 -0.829069 0.260856 1.77636e-015 21.7428 0 0.45755 -3.91959 0.267953 -1.77636e-015 21.6535 1.9685 -1.09596 15.7222 1.97376 0 12.49 -1.78429 -4.35595 0.231452 1.4471 3.56546 21.4407 -0.045508 14.297 -0.296708 -8.58283 5.86532 2.84217e-014 0 -18.7922 2.36047 0.415969 30.0831 2.84217e-014 0 -2.13644 1.37527 5.27025 21.3133 0 0 -2.35468 1.52498 -2.49946 -3.55605 21.4407 -0.045508 -13.6004 -1.60879 -2.73691 -5.86532 0 -1.42109e-014 16.7123 -1.64062 0.896684 -30.0831 0 0 -1.0931 3.22377 -3.98179 -21.3133 0 0 5.42798 3.33179 3.08314 8.92144 0 2.84217e-014 0.327982 8.4657 0.832572 0 -39.6329 2.84217e-014 -2.72066 0.898471 -4.53027 0 -38.0584 -2.84217e-014 5.68093 -12.4812 6.63813 0 -5.79894 13.3822 3.97569e-016 1.59028e-015 -1.59028e-015 -8.92144 -1.42109e-014 0 2.14373 10.869 7.44921 -7.10543e-015 -39.6329 0 4.10847 -1.04468 -2.00887 -7.10543e-015 -38.0584 0 -7.50563 -9.54846 -18.7777 0 -5.79894 13.3822 -9.93923e-017 0 -7.95139e-016 
0 0 0 0 0 -0 -6.07333 78.1337 -141.5 -1.37498 -5.48327 7.39914 -1.77636e-015 7.31558 0 1.2137 -0.829818 0.263513 -1.77636e-015 21.7428 0 0.457696 -3.91664 0.270285 1.77636e-015 21.6535 1.9685 -1.12764 15.7195 1.97374 1.77636e-015 12.49 -1.78429 -4.29529 0.231317 1.4471 3.56546 21.4407 -0.045508 14.2926 -0.294647 -8.58283 5.86532 2.84217e-014 2.84217e-014 -18.7915 2.33822 0.404004 30.0831 0 0 -2.14385 1.39291 5.27029 21.3133 0 0 -2.35234 1.54302 -2.50299 -3.55605 21.4407 -0.045508 -13.5916 -1.60361 -2.73742 -5.86532 0 1.42109e-014 16.7069 -1.6248 0.900106 -30.0831 0 -1.42109e-014 -1.10299 3.21255 -3.98689 -21.3133 0 0 5.43843 3.32091 3.09247 8.92144 1.42109e-014 0 0.328299 8.4693 0.830069 3.55271e-015 -39.6329 0 -2.71917 0.900457 -4.52688 0 -38.0584 0 5.69786 -12.4899 6.6263 0 -5.79894 13.3822 -3.97569e-016 0 -0 -8.92144 0 0 2.14448 10.8673 7.44636 0 -39.6329 0 4.10551 -1.04391 -2.01092 3.55271e-015 -38.0584 0 -7.52274 -9.54923 -18.7657 0 -5.79894 13.3822 -9.93923e-017 7.95139e-016 -7.95139e-016 
0 0 0 0 0 -0 -6.07608 78.1337 -141.5 -1.37358 -5.47958 7.39706 -1.77636e-015 7.31558 2.84217e-014 1.21378 -0.838567 0.266254 3.55271e-015 21.7428 -2.84217e-014 0.457816 -3.90452 0.272885 0 21.6535 1.9685 -1.0763 15.7169 1.97371 0 12.49 -1.78429 -4.37218 0.231558 1.4471 3.56546 21.4407 -0.045508 14.3075 -0.292582 -8.58894 5.86532 -2.84217e-014 0 -18.8046 2.3586 0.414316 30.0831 -2.84217e-014 2.84217e-014 -2.14293 1.38245 5.27026 21.3133 0 0 -2.33938 1.53196 -2.49357 -3.55605 21.4407 -0.045508 -13.5857 -1.61144 -2.72885 -5.86532 0 2.84217e-014 16.7044 -1.61151 0.89143 -30.0831 0 1.42109e-014 -1.10491 3.20527 -3.98175 -21.3133 0 -1.42109e-014 5.42443 3.31381 3.09853 8.92144 -1.42109e-014 2.84217e-014 0.330405 8.47137 0.815572 -3.55271e-015 -39.6329 0 -2.71896 0.890553 -4.50552 -1.77636e-015 -38.0584 2.84217e-014 5.65211 -12.5014 6.62183 0 -5.79894 13.3822 1.98785e-016 0 -0 -8.92144 1.42109e-014 2.84217e-014 2.14036 10.8651 7.46937 -7.10543e-015 -39.6329 0 4.10621 -1.05346 -2.03945 3.55271e-015 -38.0584 0 -7.51325 -9.54978 -18.7577 0 -5.79894 13.3822 -9.93923e-017 7.95139e-016 7.95139e-016 
0 0 0 0 0 -0 -6.07878 78.1337 -141.5 -1.37221 -5.4762 7.39437 0 7.31558 -2.84217e-014 1.21384 -0.842543 0.269447 -1.77636e-015 21.7428 0 0.472445 -3.899 0.276928 3.55271e-015 21.6535 1.9685 -1.13928 15.715 1.97369 1.77636e-015 12.49 -1.78429 -4.29152 0.23295 1.4471 3.56546 21.4407 -0.045508 14.2797 -0.290813 -8.57358 5.86532 0 0 -18.7821 2.36636 0.396706 30.0831 -2.84217e-014 -2.84217e-014 -2.15941 1.3854 5.27027 21.3133 0 -2.84217e-014 -2.32744 1.53571 -2.50295 -3.55605 21.4407 -0.045508 -13.6089 -1.59852 -2.73302 -5.86532 0 1.42109e-014 16.7224 -1.6083 0.90126 -30.0831 0 0 -1.10577 3.19009 -3.97768 -21.3133 -2.84217e-014 1.42109e-014 5.39442 3.29755 3.09558 8.92144 0 -2.84217e-014 0.328434 8.46187 0.829874 0 -39.6329 2.84217e-014 -2.71666 0.903626 -4.51492 1.77636e-015 -38.0584 0 5.67525 -12.5023 6.63579 0 -5.79894 13.3822 -3.97569e-016 -3.18055e-015 -4.77083e-015 -8.92144 0 0 2.14418 10.8643 7.44993 3.55271e-015 -39.6329 2.84217e-014 4.10846 -1.05331 -2.0166 -3.55271e-015 -38.0584 0 -7.51399 -9.54984 -18.759 0 -5.79894 13.3822 9.93923e-017 7.95139e-016 -0 
0 0 0 0 0 -0 -6.08146 78.1337 -141.5 -1.37125 -5.4736 7.39156 0 7.31558 0 1.21393 -0.853235 0.271668 -3.55271e-015 21.7428 -2.84217e-014 0.447145 -3.89542 0.278998 0 21.6535 1.9685 -1.07919 15.7143 1.97369 0 12.49 -1.78429 -4.34721 0.242311 1.4471 3.56546 21.4407 -0.045508 14.3115 -0.290515 -8.58533 5.86532 0 -2.84217e-014 -18.8034 2.35771 0.408771 30.0831 0 0 -2.15595 1.39653 5.27029 21.3133 0 0 -2.32528 1.54639 -2.49703 -3.55605 21.4407 -0.045508 -13.5798 -1.61958 -2.71053 -5.86532 -2.84217e-014 2.84217e-014 16.712 -1.61102 0.87263 -30.0831 0 1.42109e-014 -1.10555 3.19851 -3.96616 -21.3133 0 0 5.40038 3.30617 3.09119 8.92144 -1.42109e-014 0 0.330194 8.45406 0.818669 3.55271e-015 -39.6329 0 -2.71616 0.899427 -4.51998 2.66454e-015 -38.0584 0 5.65254 -12.4808 6.67912 3.55271e-015 -5.79894 13.3822 0 0 -0 -8.92144 -1.42109e-014 0 2.14009 10.8634 7.4719 3.55271e-015 -39.6329 0 4.11033 -1.0553 -2.02056 0 -38.0584 0 -7.51361 -9.54993 -18.7597 -3.55271e-015 -5.79894 13.3822 9.93923e-017 -1.59028e-015 -0 
0 0 0 0 0 -0 -6.08403 78.1337 -141.5 -1.37026 -5.47646 7.3887 1.77636e-015 7.31558 -2.84217e-014 1.21396 -0.854724 0.273709 3.55271e-015 21.7428 -2.84217e-014 0.457477 -3.88913 0.280688 -1.77636e-015 21.6535 1.9685 -1.09765 15.7248 1.97379 0 12.49 -1.78429 -4.33432 0.225402 1.4471 3.56546 21.4407 -0.045508 14.298 -0.303987 -8.56829 5.86532 0 0 -18.7974 2.37505 0.390177 30.0831 2.84217e-014 -2.84217e-014 -2.16862 1.40314 5.27031 21.3133 0 2.84217e-014 -2.29659 1.55332 -2.50252 -3.55605 21.4407 -0.045508 -13.5953 -1.60407 -2.71487 -5.86532 0 0 16.7224 -1.61385 0.883793 -30.0831 2.84217e-014 1.42109e-014 -1.10661 3.1899 -3.9645 -21.3133 0 -1.42109e-014 5.3636 3.29627 3.08925 8.92144 1.42109e-014 -2.84217e-014 0.331012 8.46032 0.812509 0 -39.6329 0 -2.71576 0.90193 -4.50145 -8.88178e-016 -38.0584 2.84217e-014 5.71529 -12.4838 6.63136 -3.55271e-015 -5.79894 13.3822 1.98785e-016 1.59028e-015 -0 -8.92144 0 2.84217e-014 2.1352 10.8702 7.49284 0 -39.6329 0 4.11238 -1.05774 -2.01935 0 -38.0584 2.84217e-014 -7.50163 -9.54868 -18.7845 0 -5.79894 13.3822 -1.98785e-016 0 -1.59028e-015 
0 0 0 0 0 -0 -6.08695 78.1337 -141.5 -1.37047 -5.47341 7.38516 0 7.31558 0 1.21402 -0.860484 0.275794 -3.55271e-015 21.7428 0 0.459778 -3.88503 0.282238 0 21.6535 1.9685 -1.10408 15.7239 1.97378 0 12.49 -1.78429 -4.32366 0.215676 1.4471 3.56546 21.4407 -0.045508 14.2983 -0.299784 -8.56614 5.86532 -2.84217e-014 0 -18.8002 2.37782 0.395011 30.0831 -2.84217e-014 2.84217e-014 -2.16756 1.4088 5.27032 21.3133 0 0 -2.29932 1.55903 -2.50933 -3.55605 21.4407 -0.045508 -13.5986 -1.61816 -2.71649 -5.86532 2.84217e-014 2.84217e-014 16.7282 -1.59834 0.885988 -30.0831 0 2.84217e-014 -1.10777 3.18419 -3.95785 -21.3133 2.84217e-014 0 5.37731 3.29132 3.1012 8.92144 0 -2.84217e-014 0.331128 8.44787 0.812908 0 -39.6329 0 -2.71473 0.905608 -4.51737 0 -38.0584 0 5.66773 -12.5015 6.63348 3.55271e-015 -5.79894 13.3822 -1.98785e-016 -1.59028e-015 -1.59028e-015 -8.92144 0 0 2.14012 10.8572 7.47593 0 -39.6329 -2.84217e-014 4.11448 -1.06028 -2.01725 0 -38.0584 0 -7.54595 -9.54951 -18.772 0 -5.79894 13.3822 -2.98177e-016 7.95139e-016 -0 
0 0 0 0 0 -0 -6.08995 78.1337 -141.5 -1.37069 -5.4706 7.38227 -1.77636e-015 7.31558 0 1.21405 -0.859224 0.278123 0 21.7428 0 0.442434 -3.88486 0.28316 -1.77636e-015 21.6535 1.9685 -1.08147 15.7294 1.97383 0 12.49 -1.78429 -4.32678 0.209521 1.4471 3.56546 21.4407 -0.045508 14.3186 -0.299695 -8.56585 5.86532 0 0 -18.8119 2.38167 0.395391 30.0831 0 0 -2.16724 1.4116 5.27033 21.3133 -2.84217e-014 0 -2.29395 1.56208 -2.51138 -3.55605 21.4407 -0.045508 -13.5714 -1.6271 -2.69095 -5.86532 0 0 16.7162 -1.58646 0.854579 -30.0831 2.84217e-014 1.42109e-014 -1.10928 3.17911 -3.94484 -21.3133 0 0 5.39428 3.28633 3.0976 8.92144 1.42109e-014 0 0.330999 8.44872 0.813699 -3.55271e-015 -39.6329 0 -2.7143 0.908778 -4.50022 8.88178e-016 -38.0584 0 5.68376 -12.499 6.63373 0 -5.79894 13.3822 5.96354e-016 1.59028e-015 1.59028e-015 -8.92144 0 -2.84217e-014 2.13829 10.8623 7.48208 0 -39.6329 -2.84217e-014 4.11654 -1.06257 -2.01527 0 -38.0584 0 -7.52653 -9.54974 -18.7697 -3.55271e-015 -5.79894 13.3822 -3.97569e-016 1.59028e-015 -0 
